<svg aria-hidden="true" style="width:0;height:0;position:absolute;overflow:hidden" xmlns="http://www.w3.org/2000/svg"><defs><symbol id="Ellipse-play" viewBox="0 0 32 32"><path d="M23.018 16c0 3.872-3.141 7.011-7.015 7.011S8.988 19.872 8.988 16c0-3.872 3.141-7.011 7.015-7.011s7.015 3.139 7.015 7.011z"/></symbol><symbol id="play_arrow" viewBox="0 0 32 32"><path d="M10.669 6.662v18.669L25.345 16 10.669 6.662z"/></symbol><symbol id="nav-menu" viewBox="0 0 32 32"><path d="M0 26.667h32v-3.556H0v3.556zm0-8.889h32v-3.556H0v3.556zM0 5.333v3.556h32V5.333H0z"/></symbol><symbol id="search-icon" viewBox="0 0 32 32"><path d="M22.87 20.126h-1.445l-.512-.494a11.876 11.876 0 0 0 2.872-7.739C23.785 5.325 18.461 0 11.892 0S-.001 5.324-.001 11.893c0 6.568 5.324 11.892 11.893 11.892 2.927 0 5.635-1.079 7.739-2.872l.494.512v1.445L29.273 32l2.726-2.726-9.13-9.148zm-10.977 0c-4.556 0-8.233-3.696-8.233-8.233a8.222 8.222 0 0 1 8.233-8.233c4.537 0 8.233 3.678 8.233 8.233 0 4.537-3.696 8.233-8.233 8.233z"/></symbol><symbol id="secrets-arrow-left" viewBox="0 0 20 32"><path d="m8.129 16.249 10.038 10.038a3.345 3.345 0 1 1-4.732 4.732L.98 18.564a3.347 3.347 0 0 1 .54-5.171L13.934.979a3.347 3.347 0 1 1 4.733 4.733L8.13 16.249z"/></symbol><symbol id="secrets-arrow-right" viewBox="0 0 20 32"><path d="M11.517 16.249 1.479 26.287a3.345 3.345 0 1 0 4.733 4.732l12.455-12.455a3.347 3.347 0 0 0-.54-5.171L5.713.979A3.347 3.347 0 1 0 .98 5.712l10.537 10.537z"/></symbol></defs></svg>