<svg width="155.641113" height="17.133789" viewBox="0 0 155.641 17.1338" fill="none" xmlns="http://www.w3.org/2000/svg" xmlns:xlink="http://www.w3.org/1999/xlink">
	<desc>
			Created with Pixso.
	</desc>
	<defs/>
	<path id="Copyright © 2019" d="M56.28 2.44Q56.62 2.64 57.07 2.64Q57.53 2.64 57.87 2.44Q58 2.36 58.11 2.26Q58.29 2.09 58.39 1.88Q58.51 1.63 58.51 1.31Q58.51 0.98 58.38 0.72Q58.28 0.52 58.11 0.36Q58.01 0.27 57.89 0.21Q57.55 -0.01 57.07 -0.01Q56.6 -0.01 56.26 0.2Q56.14 0.27 56.04 0.36Q55.86 0.52 55.77 0.71Q55.63 0.98 55.63 1.31Q55.63 1.63 55.76 1.89Q55.86 2.1 56.04 2.26Q56.15 2.37 56.28 2.44ZM71.88 -0.01L71.88 12.95L74.18 12.95L74.18 8.34Q74.18 7.19 74.75 6.52Q74.79 6.48 74.82 6.44Q75.1 6.14 75.44 5.97Q75.88 5.76 76.43 5.76Q77.23 5.76 77.68 6.15Q77.79 6.25 77.88 6.37Q78.34 6.98 78.34 8.13L78.34 12.95L80.63 12.95L80.63 7.91Q80.63 5.9 79.72 4.85Q79.49 4.59 79.21 4.4Q78.39 3.81 77.15 3.81Q76.21 3.81 75.47 4.2Q75.43 4.22 75.4 4.24Q74.98 4.46 74.66 4.79Q74.39 5.06 74.18 5.4L74.18 -0.01L71.88 -0.01ZM2.84 12.35Q4.21 13.17 6.12 13.17Q8.36 13.17 9.8 12.1Q9.82 12.08 9.83 12.07Q10.34 11.69 10.71 11.21Q11.41 10.3 11.64 9.03L9.1 9.03Q8.96 9.62 8.62 10.06Q8.4 10.34 8.1 10.55Q7.34 11.1 6.08 11.1Q4.9 11.1 4.06 10.56Q3.66 10.3 3.34 9.92Q2.35 8.74 2.35 6.67Q2.35 4.6 3.34 3.41Q3.67 3.02 4.08 2.76Q4.91 2.23 6.08 2.23Q7.34 2.23 8.1 2.81Q8.35 3 8.54 3.24Q8.95 3.73 9.1 4.42L11.64 4.42Q11.38 2.96 10.56 1.97Q10.24 1.58 9.83 1.26Q9.77 1.22 9.71 1.17Q8.29 0.14 6.12 0.14Q4.21 0.14 2.84 0.97Q2.3 1.29 1.86 1.72Q1.18 2.37 0.73 3.27Q0 4.75 0 6.67Q0 8.6 0.73 10.07Q1.17 10.93 1.82 11.57Q2.28 12.01 2.84 12.35ZM115.37 11.28L115.37 12.95L124.04 12.95L124.04 11.06L118.59 11.06Q119.43 10.38 120.33 9.58Q120.92 9.05 121.46 8.48Q121.74 8.18 122.01 7.86Q122.78 6.94 123.26 5.95Q123.63 5.18 123.71 4.37Q123.74 4.15 123.74 3.92Q123.74 2.78 123.24 1.93Q123.01 1.53 122.66 1.19Q122.55 1.08 122.42 0.98Q121.38 0.14 119.67 0.14Q118.48 0.14 117.52 0.6Q117.14 0.78 116.82 1.04Q116.34 1.43 115.99 1.99Q115.42 2.91 115.38 4.3L117.62 4.3Q117.62 3.59 117.91 3.04Q118 2.88 118.12 2.73Q118.25 2.56 118.42 2.43Q118.89 2.08 119.61 2.08Q120.41 2.08 120.83 2.48Q120.93 2.57 121.01 2.68Q121.15 2.88 121.24 3.1Q121.43 3.53 121.43 4.04Q121.43 4.87 120.92 5.75Q120.41 6.62 119.55 7.54Q118.7 8.45 117.61 9.39Q116.52 10.33 115.37 11.28ZM128.66 12.43Q129.87 13.17 131.52 13.17Q133.18 13.17 134.39 12.43Q134.45 12.39 134.51 12.35Q134.82 12.15 135.1 11.9Q135.92 11.17 136.43 10.07Q137.11 8.6 137.11 6.65Q137.11 4.73 136.43 3.25Q135.91 2.11 135.04 1.36Q134.79 1.14 134.51 0.96Q134.45 0.92 134.39 0.88Q133.18 0.14 131.52 0.14Q129.87 0.14 128.66 0.88Q128.6 0.92 128.54 0.96Q128.28 1.13 128.04 1.33Q127.15 2.09 126.62 3.25Q125.94 4.73 125.94 6.65Q125.94 8.6 126.62 10.07Q127.14 11.19 127.99 11.93Q128.25 12.16 128.54 12.35Q128.6 12.39 128.66 12.43ZM148.43 12.66Q149.33 13.17 150.65 13.17Q151.83 13.17 152.76 12.69Q153.07 12.53 153.34 12.32Q153.36 12.31 153.37 12.3Q154.47 11.44 155.05 9.9Q155.64 8.34 155.64 6.24Q155.64 5.23 155.43 4.27Q155.4 4.15 155.37 4.03Q155.14 3.06 154.65 2.25Q154.59 2.16 154.53 2.06Q154.33 1.76 154.09 1.51Q153.61 1 152.97 0.66Q152 0.14 150.58 0.14Q149.29 0.14 148.32 0.69Q148.29 0.71 148.25 0.73Q147.65 1.1 147.2 1.6Q146.92 1.92 146.71 2.3Q146.45 2.74 146.31 3.21Q146.15 3.78 146.15 4.4Q146.15 5.55 146.64 6.42Q146.68 6.5 146.72 6.56Q147.11 7.17 147.63 7.59Q147.91 7.82 148.22 7.99Q148.68 8.24 149.17 8.36Q149.66 8.49 150.18 8.49Q150.91 8.49 151.55 8.26Q151.83 8.15 152.1 8.01Q152.97 7.52 153.4 6.78Q153.35 9.05 152.61 10.15Q152.16 10.83 151.54 11.09Q151.14 11.26 150.67 11.26Q149.93 11.26 149.42 10.92Q149.34 10.87 149.27 10.81Q149.18 10.73 149.09 10.64Q148.7 10.22 148.58 9.54L146.44 9.54Q146.48 9.94 146.59 10.32Q146.74 10.84 147.03 11.32Q147.15 11.52 147.3 11.7Q147.75 12.27 148.43 12.66ZM99.02 12.35Q100.36 13.06 102.09 13.06Q103.9 13.06 105.27 12.3Q105.32 12.27 105.37 12.24Q106.05 11.84 106.58 11.31Q107.16 10.72 107.58 9.96Q108.37 8.51 108.37 6.62Q108.37 4.77 107.6 3.33Q107.59 3.32 107.58 3.3Q107.15 2.52 106.55 1.92Q106.03 1.41 105.37 1.03Q105.33 1.01 105.29 0.99Q103.91 0.21 102.09 0.21Q100.35 0.21 99 0.93Q98.91 0.98 98.82 1.03Q98.2 1.39 97.7 1.87Q97.06 2.49 96.61 3.3Q96.58 3.34 96.56 3.38Q95.81 4.8 95.81 6.62Q95.81 8.5 96.6 9.95L96.61 9.96Q97.04 10.75 97.67 11.36Q98.18 11.86 98.82 12.24Q98.92 12.3 99.02 12.35ZM141.01 2.98L141.01 12.95L143.4 12.95L143.4 0.35L141.98 0.35L138.94 1.7L138.94 3.47L141.01 2.98ZM104.97 11.52Q103.76 12.22 102.09 12.22Q100.43 12.22 99.22 11.52Q98.7 11.21 98.28 10.8Q97.73 10.27 97.36 9.55Q96.71 8.29 96.71 6.62Q96.71 4.94 97.36 3.69Q97.74 2.96 98.3 2.42Q98.71 2.03 99.22 1.73Q100.43 1.04 102.09 1.04Q103.76 1.04 104.97 1.73Q105.5 2.04 105.92 2.45Q106.46 2.98 106.83 3.69Q107.49 4.94 107.49 6.62Q107.49 8.29 106.83 9.55Q106.47 10.25 105.94 10.78Q105.51 11.2 104.97 11.52ZM85.05 12.27Q85.9 12.95 87.3 12.95L88.87 12.95L88.87 10.99L87.75 10.99Q87.07 10.99 86.78 10.75Q86.51 10.51 86.51 9.86L86.51 5.95L88.92 5.95L88.92 4.02L86.51 4.02L86.51 1.63L84.47 1.63L84.2 4.02L82.68 4.02L82.68 5.95L84.2 5.95L84.2 9.84Q84.2 11.59 85.05 12.27ZM151.71 6.36Q151.25 6.55 150.72 6.55Q149.97 6.55 149.4 6.22Q149.2 6.1 149.03 5.94Q148.8 5.73 148.66 5.48Q148.36 4.98 148.36 4.31Q148.36 3.76 148.58 3.32Q148.75 3 149.03 2.74Q149.24 2.54 149.48 2.41Q150.02 2.12 150.71 2.12Q151.41 2.12 151.95 2.42Q152.19 2.55 152.4 2.75Q152.69 3.01 152.85 3.34Q153.08 3.79 153.08 4.35Q153.08 4.75 152.95 5.09Q152.88 5.28 152.77 5.46Q152.69 5.59 152.59 5.72Q152.32 6.04 151.93 6.25Q151.82 6.31 151.71 6.36ZM132.69 10.86Q132.16 11.1 131.52 11.1Q130.86 11.1 130.31 10.85Q129.67 10.55 129.19 9.91Q128.3 8.72 128.3 6.65Q128.3 4.58 129.19 3.4Q129.67 2.76 130.31 2.46Q130.86 2.21 131.52 2.21Q132.16 2.21 132.69 2.44Q133.35 2.74 133.84 3.4Q134.75 4.58 134.75 6.65Q134.75 8.72 133.84 9.91Q133.35 10.57 132.69 10.86ZM100.4 10.4Q101.18 10.74 102.11 10.74Q103.07 10.74 103.86 10.36Q104.2 10.2 104.51 9.97Q104.93 9.65 105.23 9.24Q105.65 8.66 105.83 7.9L103.82 7.9Q103.63 8.38 103.3 8.7Q103.23 8.76 103.17 8.81Q103.14 8.83 103.12 8.85Q102.7 9.16 102.05 9.16Q101.64 9.16 101.29 9Q100.93 8.84 100.64 8.52Q100.07 7.88 100.07 6.62Q100.07 5.36 100.64 4.73Q100.92 4.42 101.27 4.26Q101.63 4.1 102.05 4.1Q102.59 4.1 103 4.33Q103.08 4.38 103.16 4.43Q103.27 4.52 103.37 4.61Q103.67 4.91 103.82 5.36L105.83 5.36Q105.63 4.44 105.09 3.8Q104.84 3.5 104.51 3.25Q104.23 3.04 103.91 2.89Q103.11 2.5 102.11 2.5Q101.22 2.5 100.47 2.82Q100.27 2.9 100.09 3Q99.7 3.22 99.38 3.52Q98.97 3.91 98.68 4.42Q98.17 5.34 98.17 6.62Q98.17 7.9 98.68 8.82Q98.98 9.38 99.43 9.78Q99.73 10.05 100.09 10.25Q100.24 10.33 100.4 10.4ZM16.49 12.79Q17.37 13.17 18.41 13.17Q19.36 13.17 20.18 12.84Q20.46 12.73 20.73 12.58Q21.22 12.29 21.62 11.91Q22.06 11.48 22.37 10.93Q22.39 10.91 22.4 10.89Q22.98 9.85 22.98 8.49Q22.98 7.14 22.4 6.11Q22.39 6.08 22.37 6.05Q22.04 5.47 21.57 5.02Q21.19 4.67 20.74 4.41Q20.48 4.26 20.21 4.15Q19.39 3.81 18.42 3.81Q17.4 3.81 16.53 4.18Q16.31 4.28 16.09 4.41Q15.66 4.65 15.31 4.98Q14.8 5.44 14.45 6.05Q14.42 6.1 14.39 6.15Q13.84 7.17 13.84 8.49Q13.84 9.85 14.41 10.89Q14.42 10.91 14.44 10.93Q14.77 11.52 15.25 11.97Q15.62 12.31 16.07 12.58Q16.28 12.69 16.49 12.79ZM25.53 4.02L25.53 16.91L27.84 16.91L27.84 11.73Q28.03 12.02 28.28 12.25Q28.62 12.57 29.06 12.79Q29.81 13.17 30.82 13.17Q31.81 13.17 32.64 12.8Q32.86 12.7 33.07 12.57Q33.44 12.34 33.76 12.05Q34.28 11.57 34.64 10.91Q34.67 10.86 34.7 10.8Q35.21 9.79 35.21 8.51Q35.21 7.24 34.7 6.22Q34.67 6.16 34.64 6.1Q34.27 5.42 33.74 4.93Q33.43 4.65 33.07 4.42Q32.83 4.28 32.58 4.16Q31.78 3.81 30.82 3.81Q29.69 3.81 28.97 4.26Q28.27 4.71 27.84 5.3L27.58 4.02L25.53 4.02ZM48.2 4.02L48.2 12.95L50.51 12.95L50.51 8.88Q50.51 7.86 50.84 7.29Q51.04 6.94 51.33 6.72Q51.53 6.57 51.77 6.48Q52.36 6.24 53.11 6.24L53.76 6.24L53.76 3.81Q52.69 3.81 51.87 4.27Q51.83 4.3 51.79 4.32Q51.41 4.56 51.09 4.87Q50.73 5.24 50.47 5.7L50.25 4.02L48.2 4.02ZM63.71 10.15Q64.27 10.29 64.91 10.29Q66.03 10.29 66.85 9.86Q67.48 9.52 67.89 9.01Q68 8.85 68.1 8.69Q68.25 8.44 68.35 8.17Q68.54 7.65 68.54 7.05Q68.54 6.39 68.31 5.82Q68.25 5.67 68.18 5.54L69.7 5.43L69.7 4.02L66.32 4.02Q65.67 3.81 64.91 3.81Q63.76 3.81 62.95 4.24Q62.38 4.55 61.99 5.02Q61.83 5.2 61.7 5.41Q61.56 5.66 61.46 5.92Q61.26 6.45 61.26 7.05Q61.26 7.84 61.58 8.48Q61.84 8.99 62.3 9.41L60.74 11.06L60.74 11.48Q60.94 11.68 61.2 11.86Q61.46 12.04 61.82 12.2Q60.96 12.85 60.73 13.67Q60.65 13.97 60.65 14.29Q60.65 15.06 61 15.62Q61.29 16.09 61.82 16.42Q62.99 17.13 64.9 17.13Q66.3 17.13 67.2 16.69Q68.1 16.25 68.53 15.54Q68.83 15.05 68.92 14.53Q68.97 14.29 68.97 14.04Q68.97 13.21 68.59 12.64Q68.41 12.36 68.15 12.15Q67.34 11.46 65.57 11.3Q64.4 11.19 63.87 11.08Q63.35 10.97 63.04 10.81L63.71 10.15ZM40.14 12.36L38.07 16.91L40.52 16.91L46.19 4.02L43.74 4.02L41.13 10.31L38.63 4.02L36.13 4.02L39.6 12.36L40.14 12.36ZM55.92 4.02L55.92 12.95L58.22 12.95L58.22 4.02L55.92 4.02ZM65.93 8.25Q65.51 8.52 64.91 8.52Q64.22 8.52 63.78 8.19Q63.75 8.17 63.73 8.15Q63.61 8.05 63.52 7.93Q63.28 7.59 63.28 7.07Q63.28 6.55 63.53 6.2Q63.61 6.08 63.73 5.99Q63.75 5.97 63.78 5.95Q64.22 5.61 64.91 5.61Q65.51 5.61 65.93 5.88Q66.01 5.93 66.07 5.99Q66.21 6.1 66.3 6.23Q66.54 6.57 66.54 7.07Q66.54 7.57 66.3 7.9Q66.21 8.04 66.07 8.15Q66.01 8.2 65.93 8.25ZM19.12 11.05Q18.78 11.17 18.41 11.17Q18.02 11.17 17.68 11.05Q17.22 10.88 16.85 10.5Q16.19 9.82 16.19 8.49Q16.19 7.16 16.85 6.49Q17.21 6.12 17.64 5.95Q18.01 5.81 18.42 5.81Q18.76 5.81 19.07 5.91Q19.56 6.07 19.97 6.49Q19.97 6.49 19.98 6.49Q20.64 7.16 20.64 8.49Q20.64 9.82 19.98 10.49Q19.97 10.5 19.97 10.5Q19.59 10.89 19.12 11.05ZM31.54 10.88Q31.01 11.15 30.34 11.15Q29.64 11.15 29.1 10.86Q28.78 10.69 28.51 10.41Q28.31 10.2 28.17 9.95Q27.8 9.33 27.8 8.49Q27.8 7.65 28.17 7.02Q28.31 6.78 28.51 6.57Q28.78 6.29 29.1 6.12Q29.64 5.83 30.34 5.83Q30.98 5.83 31.49 6.09Q31.85 6.27 32.15 6.58Q32.37 6.81 32.52 7.07Q32.87 7.69 32.87 8.51Q32.87 9.35 32.5 9.97Q32.35 10.21 32.15 10.42Q31.88 10.7 31.54 10.88ZM62.88 14.58Q62.76 14.35 62.76 14.05Q62.76 14.01 62.76 13.96Q62.79 13.65 62.98 13.35Q63.21 13.01 63.73 12.72Q64.36 12.83 65.09 12.88Q66.14 12.95 66.49 13.27Q66.66 13.43 66.75 13.62Q66.84 13.83 66.84 14.09Q66.84 14.33 66.75 14.53Q66.62 14.82 66.3 15.03Q65.76 15.38 64.9 15.38Q64 15.38 63.38 15.05Q63.03 14.86 62.88 14.58Z" fill="#FFFFFF" fill-opacity="1.000000" fill-rule="evenodd"/>
</svg>
