<svg width="14.000000" height="14.000000" viewBox="0 0 14 14" fill="none" xmlns="http://www.w3.org/2000/svg" xmlns:xlink="http://www.w3.org/1999/xlink">
	<desc>
			Created with Pixso.
	</desc>
	<defs/>
	<path id="google" d="M13.87 5.6L7.14 5.6C7.14 6.3 7.14 7.7 7.14 8.4L11.04 8.4C10.89 9.1 10.36 10.08 9.61 10.57C9.61 10.57 9.61 10.57 9.61 10.57C8.61 11.23 7.3 11.38 6.32 11.18C4.8 10.88 3.59 9.77 3.1 8.36C3.1 8.36 3.1 8.34 3.1 8.34C2.8 7.47 2.8 6.3 3.1 5.6L3.1 5.6C3.5 4.31 4.74 3.14 6.27 2.82C7.5 2.56 8.89 2.84 9.91 3.79C10.05 3.66 11.79 1.96 11.93 1.82C8.44 -1.34 2.85 -0.23 0.76 3.85L0.76 3.85C0.76 3.85 0.76 3.85 0.75 3.86C-0.28 5.87 -0.24 8.23 0.76 10.14C0.76 10.14 0.76 10.14 0.75 10.14C1.66 11.9 3.31 13.24 5.29 13.76C7.4 14.31 10.08 13.93 11.88 12.31C11.88 12.31 11.88 12.31 11.88 12.31C13.4 10.94 14.35 8.6 13.87 5.6Z" fill="#FFFFFF" fill-opacity="1.000000" fill-rule="evenodd"/>
</svg>
