<svg aria-hidden="true" style="position: absolute; width: 0; height: 0; overflow: hidden;" version="1.1" xmlns="http://www.w3.org/2000/svg" xmlns:xlink="http://www.w3.org/1999/xlink">
<defs>
<symbol id="icon-Ellipse-play" viewBox="0 0 32 32">
<path d="M23.018 16c0 3.872-3.141 7.011-7.015 7.011s-7.015-3.139-7.015-7.011c0-3.872 3.141-7.011 7.015-7.011s7.015 3.139 7.015 7.011z"></path>
</symbol>
<symbol id="icon-play_arrow" viewBox="0 0 32 32">
<path d="M10.669 6.662v18.669l14.676-9.331-14.676-9.338z"></path>
</symbol>
<symbol id="icon-nav-menu" viewBox="0 0 32 32">
<path d="M0 26.667h32v-3.556h-32v3.556zM0 17.778h32v-3.556h-32v3.556zM0 5.333v3.556h32v-3.556h-32z"></path>
</symbol>
<symbol id="icon-search-icon" viewBox="0 0 32 32">
<path d="M22.87 20.126h-1.445l-0.512-0.494c1.793-2.086 2.872-4.812 2.872-7.739 0-6.568-5.324-11.893-11.893-11.893s-11.893 5.324-11.893 11.893c0 6.568 5.324 11.892 11.893 11.892 2.927 0 5.635-1.079 7.739-2.872l0.494 0.512v1.445l9.148 9.13 2.726-2.726-9.13-9.148zM11.893 20.126c-4.556 0-8.233-3.696-8.233-8.233 0-4.556 3.678-8.233 8.233-8.233 4.537 0 8.233 3.678 8.233 8.233 0 4.537-3.696 8.233-8.233 8.233z"></path>
</symbol>
</defs>
</svg>
