<svg aria-hidden="true" style="position: absolute; width: 0; height: 0; overflow: hidden;" version="1.1" xmlns="http://www.w3.org/2000/svg" xmlns:xlink="http://www.w3.org/1999/xlink">
<defs>
<symbol id="Ellipse-play" viewBox="0 0 32 32">
<path d="M23.018 16c0 3.872-3.141 7.011-7.015 7.011s-7.015-3.139-7.015-7.011c0-3.872 3.141-7.011 7.015-7.011s7.015 3.139 7.015 7.011z"></path>
</symbol>
<symbol id="play_arrow" viewBox="0 0 32 32">
<path d="M10.669 6.662v18.669l14.676-9.331-14.676-9.338z"></path>
</symbol>
<symbol id="nav-menu" viewBox="0 0 32 32">
<path d="M0 26.667h32v-3.556h-32v3.556zM0 17.778h32v-3.556h-32v3.556zM0 5.333v3.556h32v-3.556h-32z"></path>
</symbol>
<symbol id="search-icon" viewBox="0 0 32 32">
<path d="M22.87 20.126h-1.445l-0.512-0.494c1.793-2.086 2.872-4.812 2.872-7.739 0-6.568-5.324-11.893-11.893-11.893s-11.893 5.324-11.893 11.893c0 6.568 5.324 11.892 11.893 11.892 2.927 0 5.635-1.079 7.739-2.872l0.494 0.512v1.445l9.148 9.13 2.726-2.726-9.13-9.148zM11.893 20.126c-4.556 0-8.233-3.696-8.233-8.233 0-4.556 3.678-8.233 8.233-8.233 4.537 0 8.233 3.678 8.233 8.233 0 4.537-3.696 8.233-8.233 8.233z"></path>
</symbol>
<symbol id="secrets-arrow-left" viewBox="0 0 20 32">
<path d="M8.129 16.249l10.038 10.038c1.307 1.307 1.307 3.426 0 4.732s-3.426 1.307-4.732 0l-12.455-12.455c-1.307-1.307-1.307-3.426 0-4.733 0.168-0.168 0.349-0.314 0.54-0.438l12.414-12.414c1.307-1.307 3.426-1.307 4.733 0s1.307 3.426 0 4.733l-10.537 10.537z"></path>
</symbol>
<symbol id="secrets-arrow-right" viewBox="0 0 20 32">
<path d="M11.517 16.249l-10.038 10.038c-1.307 1.307-1.307 3.426 0 4.732s3.426 1.307 4.733 0l12.455-12.455c1.307-1.307 1.307-3.426 0-4.733-0.168-0.168-0.349-0.314-0.54-0.438l-12.414-12.414c-1.307-1.307-3.426-1.307-4.733 0s-1.307 3.426 0 4.733l10.537 10.537z"></path>
</symbol>
</defs>
</svg>
