<svg width="25.498535" height="51.000000" viewBox="0 0 25.4985 51" fill="none" xmlns="http://www.w3.org/2000/svg" xmlns:xlink="http://www.w3.org/1999/xlink">
	<desc>
			Created with Pixso.
	</desc>
	<defs/>
	<path id="Vector" d="M25.49 15.93L25.49 7.97C25.49 7.09 24.78 6.37 23.9 6.37L22.31 6.37L22.31 1.59C22.31 0.71 21.59 0 20.71 0C18.46 0 15 -0.17 10.95 2.25C8.42 1.5 6.64 1.59 4.78 1.59C3.9 1.59 3.18 2.3 3.18 3.19L3.18 6.37L1.59 6.37C0.71 6.37 0 7.09 0 7.97L0 15.93C0 22.42 4.87 27.8 11.15 28.58L11.15 49.4C11.15 50.28 11.86 51 12.74 51C13.62 51 14.34 50.28 14.34 49.4L14.34 43.82L16.73 43.82C21.56 43.82 25.49 39.89 25.49 35.06L25.49 32.67C25.49 31.79 24.78 31.07 23.9 31.07L19.92 31.07C17.8 31.07 15.85 31.83 14.34 33.08L14.34 28.58C20.61 27.81 25.49 22.46 25.49 15.93ZM22.31 15.93C22.31 18.77 21.05 21.33 19.07 23.09C19.1 22.83 19.12 22.57 19.12 22.31C19.12 18.27 17.61 14.58 15.13 11.77C17.23 10.34 19.73 9.56 22.31 9.56L22.31 15.93ZM19.12 3.19L19.12 6.69C18.82 6.75 18.53 6.82 18.24 6.9C17.21 5.74 16.03 4.76 14.74 3.96C16.13 3.45 17.61 3.19 19.12 3.19ZM6.37 4.78C9.54 4.78 12.61 5.93 15 8.14C14.21 8.55 13.46 9.03 12.74 9.56C10.89 8.17 8.72 7.17 6.37 6.69L6.37 4.78ZM3.18 15.93L3.18 9.56C10.21 9.56 15.93 15.28 15.93 22.31C15.93 24.09 14.46 25.54 12.66 25.5C7.06 25.36 3.18 20.91 3.18 15.93ZM19.92 34.26L22.31 34.26L22.31 35.06C22.31 38.13 19.8 40.64 16.73 40.64L14.34 40.64L14.34 39.84C14.34 36.76 16.84 34.26 19.92 34.26Z" fill="#FFFFFF" fill-opacity="1.000000" fill-rule="nonzero"/>
</svg>
